<?xml version="1.0" standalone="no"?>
<!DOCTYPE svg PUBLIC "-//W3C//DTD SVG 20010904//EN"
 "http://www.w3.org/TR/2001/REC-SVG-20010904/DTD/svg10.dtd">
<svg version="1.0" xmlns="http://www.w3.org/2000/svg"
 width="16.000000pt" height="16.000000pt" viewBox="0 0 16.000000 16.000000"
 preserveAspectRatio="xMidYMid meet">
<metadata>
Created by potrace 1.11, written by Peter Selinger 2001-2013
</metadata>
<g transform="translate(0.000000,16.000000) scale(0.001563,-0.001563)"
fill="#000000" stroke="none">
<path d="M4838 9705 c-2 -2 -46 -7 -98 -10 -52 -3 -122 -10 -155 -15 -33 -5
-82 -12 -110 -15 -27 -3 -72 -10 -100 -15 -27 -6 -68 -12 -90 -16 -58 -8 -335
-72 -413 -95 -388 -117 -750 -270 -1057 -448 -517 -301 -1003 -734 -1365
-1216 -80 -107 -260 -370 -260 -381 0 -1 -21 -38 -46 -81 -51 -85 -164 -306
-215 -418 -89 -198 -207 -529 -243 -685 -2 -8 -9 -35 -16 -60 -7 -25 -14 -54
-16 -65 -2 -11 -10 -47 -18 -80 -34 -135 -78 -435 -93 -625 -10 -125 -9 -608
1 -735 7 -85 41 -344 61 -465 9 -50 65 -300 76 -335 5 -16 21 -70 35 -120 185
-631 508 -1218 944 -1720 161 -185 380 -397 550 -533 52 -42 97 -79 100 -82 3
-4 54 -41 114 -84 441 -317 861 -524 1395 -690 127 -39 411 -103 536 -121 22
-4 47 -8 55 -10 28 -8 254 -35 355 -42 189 -15 815 -6 844 12 3 1 40 6 81 10
41 4 77 8 80 10 3 2 29 6 59 10 30 4 63 9 75 11 12 2 48 9 81 15 33 6 98 20
145 31 47 11 94 21 104 23 49 11 282 81 381 115 818 283 1497 760 2080 1461
133 159 342 473 447 669 20 36 50 92 68 125 79 146 201 438 269 645 37 111
102 343 115 410 3 14 16 79 30 145 13 66 27 143 30 170 4 28 9 57 11 65 2 8 7
42 10 75 4 33 8 71 10 85 13 105 20 263 19 490 0 230 -10 485 -19 500 -2 3 -6
30 -9 60 -13 103 -17 135 -27 190 -5 30 -12 69 -14 85 -5 25 -15 79 -31 150
-107 505 -328 1037 -618 1490 -39 61 -74 115 -79 120 -4 6 -40 55 -79 110 -40
55 -75 102 -78 105 -3 3 -21 25 -40 50 -185 239 -500 550 -773 763 -567 443
-1283 767 -1962 887 -237 42 -229 41 -470 66 -61 6 -661 14 -667 9z m652 -379
c25 -3 87 -11 138 -17 51 -6 102 -12 115 -14 12 -2 38 -6 57 -9 29 -4 190 -36
265 -51 419 -89 947 -312 1345 -570 75 -49 281 -194 290 -205 3 -3 28 -23 55
-45 41 -32 116 -96 201 -170 33 -28 168 -163 234 -232 361 -379 678 -878 860
-1353 11 -30 25 -64 30 -75 8 -19 71 -209 76 -230 2 -5 14 -48 28 -95 26 -89
71 -280 82 -345 7 -43 11 -70 19 -105 3 -14 7 -41 9 -60 6 -58 16 -134 21
-155 19 -99 27 -601 12 -814 -4 -63 -9 -117 -11 -120 -2 -3 -7 -36 -10 -73 -4
-37 -9 -77 -11 -90 -2 -13 -11 -64 -20 -115 -18 -107 -78 -365 -94 -406 -6
-15 -9 -27 -6 -27 5 0 -97 -300 -133 -392 -93 -231 -233 -504 -361 -703 -45
-71 -181 -266 -191 -275 -3 -3 -35 -43 -71 -90 -37 -47 -79 -99 -95 -116 -16
-17 -42 -46 -57 -65 -75 -91 -306 -313 -457 -440 -301 -252 -716 -503 -1065
-644 -49 -20 -99 -40 -110 -45 -117 -55 -582 -185 -770 -215 -298 -48 -444
-60 -745 -60 -208 0 -444 10 -459 20 -3 1 -33 6 -66 9 -102 10 -149 16 -163
21 -7 3 -43 10 -80 15 -227 36 -558 134 -837 247 -105 42 -365 167 -450 216
-368 210 -683 452 -971 748 -352 361 -620 759 -845 1254 -102 226 -235 656
-274 890 -3 17 -7 41 -10 55 -15 78 -18 95 -31 205 -3 33 -8 69 -10 80 -19
104 -26 621 -10 815 4 58 9 107 11 110 2 3 6 33 10 67 3 34 7 70 9 80 2 10 7
38 10 63 5 36 38 199 71 350 21 93 104 350 159 493 139 360 350 737 574 1027
55 71 198 244 237 286 486 531 1078 921 1755 1155 63 22 122 42 130 44 8 2 47
13 85 25 63 19 190 50 255 64 14 3 34 7 45 9 42 9 101 20 122 22 12 2 34 6 50
9 30 7 67 12 148 22 28 3 61 7 75 10 14 2 68 6 120 10 52 3 96 8 98 9 6 5 564
-3 612 -9z"/>
<path d="M7185 7616 c-22 -7 -56 -21 -75 -30 -19 -10 -475 -457 -1012 -994
l-978 -977 -587 586 c-549 548 -592 588 -644 607 -146 54 -296 19 -394 -90
-103 -114 -117 -298 -34 -421 12 -18 342 -353 733 -745 814 -817 767 -777 926
-777 85 0 101 3 151 28 47 24 243 216 1181 1155 1252 1254 1169 1161 1174
1310 4 85 -19 158 -70 225 -37 50 -122 109 -176 123 -55 15 -149 15 -195 0z"/>
</g>
</svg>
